# xmcd
#
# Track frame offsets: 
#        187
#        12357
#        32370
#        52990
#        71155
#        88632
#        102592
#        125442
#        144370
#        162265
#        182337
#        198222
#        215830
#        235155
#        257100
#
# Disc length: 3629 seconds
#
# Revision: 1
# Processed by: cddbd v1.5.2PL0 Copyright (c) Steve Scherf et al.
# Submitted via: ExactAudioCopy v0.95a5
#
DISCID=cc0e2b0f
DTITLE=4PM - k-Now's The Time
DYEAR=1994
DGENRE=R&B
TTITLE0=Sukiyaki
TTITLE1=Lay Down Your Love
TTITLE2=Forever In My Heart
TTITLE3=Gift Of Perfect Love
TTITLE4=Yes
TTITLE5=In This Life
TTITLE6=Naturally
TTITLE7=For What More
TTITLE8=Father And Child
TTITLE9=Time (Clock Of The Heart)
TTITLE10=Then Came You
TTITLE11=Glad You Said The Words
TTITLE12=Years From Here
TTITLE13=All I Think Of (Is You)
TTITLE14=Don't Underestimate My Love For You
EXTD=
EXTT0=
EXTT1=
EXTT2=
EXTT3=
EXTT4=
EXTT5=
EXTT6=
EXTT7=
EXTT8=
EXTT9=
EXTT10=
EXTT11=
EXTT12=
EXTT13=
EXTT14=
PLAYORDER=
